# Blender v2.92.0 OBJ File: 'Siemens .blend'
# www.blender.org
mtllib Siemens.mtl
o Cube_Cube.001
v -0.587706 -1.000000 0.076683
v -0.608709 -0.978997 0.076683
v -0.587706 -0.993848 0.091535
v -0.599832 -0.991123 0.088809
v -0.602557 -0.978997 0.091535
v -0.602557 -0.993848 0.076683
v -0.587706 1.000000 0.076683
v -0.608709 0.978997 0.076683
v -0.587706 0.993848 0.091535
v -0.599832 0.991123 0.088809
v -0.602557 0.993848 0.076683
v -0.602557 0.978997 0.091535
v -0.587706 -1.000000 -0.076683
v -0.608709 -0.978997 -0.076683
v -0.587706 -0.978997 -0.097686
v -0.602557 -0.993848 -0.076683
v -0.599832 -0.991123 -0.088809
v -0.602557 -0.978997 -0.091535
v -0.587706 -0.993848 -0.091535
v -0.587706 1.000000 -0.076683
v -0.587706 0.978997 -0.097686
v -0.608709 0.978997 -0.076683
v -0.587706 0.993848 -0.091535
v -0.599832 0.991123 -0.088809
v -0.602557 0.978997 -0.091535
v -0.602557 0.993848 -0.076683
v 0.587706 -1.000000 0.076683
v 0.608709 -0.978997 0.076683
v 0.602557 -0.993848 0.076683
v 0.599832 -0.991123 0.088809
v 0.602557 -0.978997 0.091535
v 0.587706 -0.993848 0.091535
v 0.587706 1.000000 0.076683
v 0.608709 0.978997 0.076683
v 0.587706 0.993848 0.091535
v 0.599832 0.991123 0.088809
v 0.602557 0.978997 0.091535
v 0.602557 0.993848 0.076683
v 0.587706 -1.000000 -0.076683
v 0.587706 -0.978997 -0.097686
v 0.608709 -0.978997 -0.076683
v 0.587706 -0.993848 -0.091535
v 0.599832 -0.991123 -0.088809
v 0.602557 -0.978997 -0.091535
v 0.602557 -0.993848 -0.076683
v 0.587706 1.000000 -0.076683
v 0.608709 0.978997 -0.076683
v 0.587706 0.978997 -0.097686
v 0.602557 0.993848 -0.076683
v 0.599832 0.991123 -0.088809
v 0.602557 0.978997 -0.091535
v 0.587706 0.993848 -0.091535
v -0.587706 -0.978997 0.097686
v -0.587706 0.978997 0.097686
v 0.587706 0.978997 0.097686
v 0.587706 -0.978997 0.097686
v -0.551470 -0.955609 0.097686
v -0.564318 -0.942761 0.097686
v -0.573403 -0.964694 0.097686
v -0.557894 -0.953888 0.097686
v -0.562597 -0.949185 0.097686
v -0.564318 0.942761 0.097686
v -0.551470 0.955609 0.097686
v -0.573403 0.964694 0.097686
v -0.562597 0.949185 0.097686
v -0.557894 0.953888 0.097686
v 0.564318 -0.942761 0.097686
v 0.551470 -0.955609 0.097686
v 0.573403 -0.964694 0.097686
v 0.562597 -0.949185 0.097686
v 0.557894 -0.953888 0.097686
v 0.551470 0.955609 0.097686
v 0.564318 0.942761 0.097686
v 0.573403 0.964694 0.097686
v 0.557894 0.953888 0.097686
v 0.562597 0.949185 0.097686
v -0.564318 -0.942761 0.132263
v -0.551470 -0.955609 0.132263
v -0.551470 -0.942761 0.145111
v -0.562602 -0.949176 0.132263
v -0.562602 -0.942761 0.138678
v -0.560934 -0.948905 0.138407
v -0.551470 -0.953893 0.138678
v -0.557885 -0.953893 0.132263
v -0.557614 -0.952225 0.138407
v -0.557885 -0.942761 0.143394
v -0.551470 -0.949176 0.143394
v -0.557614 -0.948905 0.141727
v -0.564318 0.942761 0.132263
v -0.551470 0.942761 0.145111
v -0.551470 0.955609 0.132263
v -0.562602 0.942761 0.138678
v -0.562602 0.949176 0.132263
v -0.560934 0.948905 0.138407
v -0.551470 0.949176 0.143394
v -0.557885 0.942761 0.143394
v -0.557614 0.948905 0.141727
v -0.557885 0.953893 0.132263
v -0.551470 0.953893 0.138678
v -0.557614 0.952225 0.138407
v 0.564318 -0.942761 0.132263
v 0.551470 -0.942761 0.145111
v 0.551470 -0.955609 0.132263
v 0.562602 -0.942761 0.138678
v 0.562602 -0.949176 0.132263
v 0.560934 -0.948905 0.138407
v 0.551470 -0.949176 0.143394
v 0.557885 -0.942761 0.143394
v 0.557614 -0.948905 0.141727
v 0.557885 -0.953893 0.132263
v 0.551470 -0.953893 0.138678
v 0.557614 -0.952225 0.138407
v 0.564318 0.942761 0.132263
v 0.551470 0.955609 0.132263
v 0.551470 0.942761 0.145111
v 0.562602 0.949176 0.132263
v 0.562602 0.942761 0.138678
v 0.560934 0.948905 0.138407
v 0.551470 0.953893 0.138678
v 0.557885 0.953893 0.132263
v 0.557614 0.952225 0.138407
v 0.557885 0.942761 0.143394
v 0.551470 0.949176 0.143394
v 0.557614 0.948905 0.141727
v -0.551470 0.132931 0.145111
v -0.557885 0.132931 0.143394
v -0.562602 0.132931 0.138678
v -0.564318 0.132931 0.132263
v 0.551470 0.132931 0.145111
v 0.557885 0.132931 0.143394
v 0.562602 0.132931 0.138678
v 0.564318 0.132931 0.132263
v -0.564318 0.132931 0.097686
v 0.564318 0.132931 0.097686
v -0.551470 0.810774 0.145111
v 0.557885 0.810774 0.143394
v 0.562602 0.810774 0.138678
v 0.564318 0.810774 0.132263
v 0.564318 0.810774 0.097686
v -0.557885 0.810774 0.143394
v -0.562602 0.810774 0.138678
v -0.564318 0.810774 0.132263
v 0.551470 0.810774 0.145111
v -0.564318 0.810774 0.097686
v -0.353016 -0.942761 0.145111
v 0.353016 -0.942761 0.145111
v 0.353016 -0.949176 0.143394
v -0.353016 -0.949176 0.143394
v 0.353016 -0.953893 0.138678
v -0.353016 -0.953893 0.138678
v -0.353016 -0.955609 0.132263
v 0.353016 -0.955609 0.132263
v -0.353016 0.942761 0.145111
v 0.353016 0.942761 0.145111
v -0.353016 0.949176 0.143394
v 0.353016 0.949176 0.143394
v -0.353016 0.953893 0.138678
v 0.353016 0.953893 0.138678
v 0.353016 0.955609 0.132263
v -0.353016 0.955609 0.132263
v 0.353016 -0.955609 0.097686
v -0.353016 -0.955609 0.097686
v -0.353016 0.955609 0.097686
v 0.353016 0.955609 0.097686
v 0.335471 0.132931 0.109236
v 0.353016 0.150476 0.109236
v 0.344243 0.135281 0.109236
v 0.350665 0.141703 0.109236
v -0.353016 0.150476 0.109236
v -0.335471 0.132931 0.109236
v -0.350665 0.141703 0.109236
v -0.344243 0.135281 0.109236
v -0.335471 0.810774 0.109236
v -0.353016 0.793229 0.109236
v -0.344243 0.808424 0.109236
v -0.350665 0.802001 0.109236
v 0.353016 0.793229 0.109236
v 0.335471 0.810774 0.109236
v 0.350665 0.802001 0.109236
v 0.344243 0.808424 0.109236
v -0.335471 0.132931 0.145111
v -0.353016 0.150476 0.145111
v -0.370561 0.132931 0.145111
v -0.353016 0.115385 0.145111
v -0.344243 0.135281 0.145111
v -0.350665 0.141703 0.145111
v 0.353016 0.150476 0.145111
v 0.335471 0.132931 0.145111
v 0.353016 0.115385 0.145111
v 0.370561 0.132931 0.145111
v 0.350665 0.141703 0.145111
v 0.344243 0.135281 0.145111
v 0.335471 0.810774 0.145111
v 0.353016 0.793229 0.145111
v 0.370561 0.810774 0.145111
v 0.353016 0.828319 0.145111
v 0.344243 0.808424 0.145111
v 0.350665 0.802001 0.145111
v -0.353016 0.793229 0.145111
v -0.335471 0.810774 0.145111
v -0.353016 0.828319 0.145111
v -0.370561 0.810774 0.145111
v -0.350665 0.802001 0.145111
v -0.344243 0.808424 0.145111
v -0.246607 1.000000 0.076683
v -0.246607 1.000000 -0.076683
v 0.246607 1.000000 0.076683
v 0.246607 1.000000 -0.076683
v -0.246607 1.018699 0.063839
v -0.246607 1.018699 -0.076683
v 0.246607 1.018699 -0.076683
v 0.246607 1.018699 0.063839
v -0.246607 0.993160 -0.091637
v 0.246607 0.993160 -0.091637
v -0.246607 1.009338 -0.102181
v 0.246607 1.009338 -0.102181
v -0.246607 0.611158 -0.097926
v 0.246607 0.611158 -0.097926
v -0.246607 0.611158 -0.113149
v 0.246607 0.611158 -0.113149
v -0.246607 0.959582 -0.098240
v 0.246607 0.959582 -0.098240
v 0.246607 0.978050 -0.113338
v -0.246607 0.978050 -0.113338
vt 0.601347 0.759116
vt 0.617845 0.759116
vt 0.617845 0.759116
vt 0.601347 0.759116
vt 0.377625 0.526876
vt 0.622375 0.526876
vt 0.622375 0.723124
vt 0.377625 0.723124
vt 0.629313 0.526876
vt 0.870687 0.526876
vt 0.870687 0.723124
vt 0.629313 0.723124
vt 0.377625 0.026876
vt 0.622375 0.026876
vt 0.622375 0.223124
vt 0.377625 0.223124
vt 0.377625 0.254313
vt 0.622375 0.254313
vt 0.622375 0.495687
vt 0.377625 0.495687
vt 0.129313 0.723124
vt 0.129313 0.750000
vt 0.126823 0.750000
vt 0.125000 0.723124
vt 0.377625 0.995687
vt 0.377625 1.000000
vt 0.376110 1.000000
vt 0.375000 0.995687
vt 0.375000 0.026876
vt 0.375000 0.011359
vt 0.377625 0.000000
vt 0.622375 0.995687
vt 0.625000 0.995687
vt 0.625000 0.998177
vt 0.622375 1.000000
vt 0.875000 0.723124
vt 0.875000 0.738641
vt 0.870687 0.750000
vt 0.622375 0.000000
vt 0.623890 0.000000
vt 0.625000 0.026876
vt 0.129313 0.526876
vt 0.125000 0.526876
vt 0.125000 0.511359
vt 0.129313 0.500000
vt 0.377625 0.250000
vt 0.376110 0.250000
vt 0.375000 0.223124
vt 0.375000 0.254313
vt 0.375000 0.251823
vt 0.870687 0.500000
vt 0.873177 0.500000
vt 0.875000 0.526876
vt 0.622375 0.250000
vt 0.623890 0.250000
vt 0.625000 0.254313
vt 0.625000 0.223124
vt 0.625000 0.238641
vt 0.370687 0.723124
vt 0.375000 0.723124
vt 0.375370 0.746821
vt 0.370687 0.750000
vt 0.377625 0.750000
vt 0.377625 0.754313
vt 0.375000 0.754313
vt 0.629313 0.750000
vt 0.625238 0.746214
vt 0.625000 0.723124
vt 0.622375 0.754313
vt 0.622375 0.750000
vt 0.625000 0.754313
vt 0.370687 0.526876
vt 0.370687 0.500000
vt 0.374762 0.503786
vt 0.375000 0.526876
vt 0.377625 0.500000
vt 0.375000 0.495687
vt 0.625000 0.526876
vt 0.624630 0.503179
vt 0.629313 0.500000
vt 0.622375 0.500000
vt 0.625000 0.495687
vt 0.380549 0.988246
vt 0.380549 0.947493
vt 0.380549 0.947493
vt 0.380549 0.988246
vt 0.617845 0.988246
vt 0.617845 0.947493
vt 0.618647 0.947493
vt 0.618647 0.988246
vt 0.500000 0.943890
vt 0.498078 0.947493
vt 0.382155 0.947493
vt 0.382155 0.802507
vt 0.498078 0.802507
vt 0.500000 0.806110
vt 0.619451 0.761754
vt 0.619451 0.802507
vt 0.619451 0.802507
vt 0.619451 0.761754
vt 0.620587 0.757250
vt 0.500000 0.759116
vt 0.382155 0.759116
vt 0.379413 0.757250
vt 0.620587 0.992750
vt 0.619451 0.988246
vt 0.619451 0.947493
vt 0.379413 0.992750
vt 0.382155 0.990884
vt 0.500000 0.990884
vt 0.601347 0.990884
vt 0.617845 0.990884
vt 0.380549 0.989565
vt 0.380549 0.990531
vt 0.380549 0.990884
vt 0.618648 0.990884
vt 0.619236 0.990884
vt 0.619451 0.990884
vt 0.381352 0.759116
vt 0.380764 0.759116
vt 0.380549 0.759116
vt 0.619451 0.760435
vt 0.619451 0.759469
vt 0.619451 0.759116
vt 0.382155 0.990884
vt 0.381353 0.990884
vt 0.381387 0.990884
vt 0.382155 0.990884
vt 0.380549 0.990884
vt 0.380549 0.990884
vt 0.380549 0.988246
vt 0.380549 0.989507
vt 0.380549 0.989563
vt 0.380549 0.988246
vt 0.380549 0.989507
vt 0.382155 0.988246
vt 0.382155 0.989563
vt 0.381387 0.989507
vt 0.381353 0.988246
vt 0.617845 0.990884
vt 0.617845 0.990884
vt 0.618613 0.990884
vt 0.618647 0.990884
vt 0.617845 0.990884
vt 0.618613 0.990884
vt 0.618613 0.989507
vt 0.617845 0.989563
vt 0.619451 0.988246
vt 0.619451 0.989507
vt 0.619451 0.988246
vt 0.619451 0.989563
vt 0.619451 0.990884
vt 0.619451 0.990884
vt 0.382155 0.759116
vt 0.382155 0.759116
vt 0.381387 0.759116
vt 0.381353 0.759116
vt 0.382155 0.759116
vt 0.381387 0.759116
vt 0.382155 0.761754
vt 0.381353 0.761754
vt 0.381387 0.760493
vt 0.382155 0.760437
vt 0.380549 0.761754
vt 0.380549 0.760493
vt 0.380549 0.761754
vt 0.380549 0.760437
vt 0.380549 0.759116
vt 0.380549 0.759116
vt 0.618647 0.759116
vt 0.618613 0.759116
vt 0.617845 0.759116
vt 0.619451 0.759116
vt 0.619451 0.759116
vt 0.619451 0.761754
vt 0.619451 0.760493
vt 0.619451 0.760437
vt 0.619451 0.761754
vt 0.619451 0.760493
vt 0.617845 0.761754
vt 0.617845 0.760437
vt 0.618613 0.760493
vt 0.618647 0.761754
vt 0.601347 0.988246
vt 0.601347 0.989563
vt 0.601347 0.990884
vt 0.601347 0.990884
vt 0.500000 0.761754
vt 0.500000 0.760437
vt 0.500000 0.759116
vt 0.500000 0.759116
vt 0.603540 0.947493
vt 0.601347 0.943890
vt 0.601347 0.806110
vt 0.603540 0.802507
vt 0.617845 0.802507
vt 0.380549 0.802507
vt 0.380549 0.802507
vt 0.380549 0.802507
vt 0.380549 0.761754
vt 0.619451 0.947493
vt 0.619451 0.947493
vt 0.619451 0.989565
vt 0.618648 0.759116
vt 0.380549 0.760435
vt 0.381352 0.990884
vt 0.500000 0.990884
vt 0.601347 0.759116
vt 0.601347 0.760437
vt 0.601347 0.761754
vt 0.500000 0.990884
vt 0.500000 0.989563
vt 0.500000 0.988246
vt 0.381353 0.802507
vt 0.500000 0.798904
vt 0.598724 0.947493
vt 0.502623 0.947493
vt 0.502623 0.947493
vt 0.598724 0.947493
vt 0.619451 0.802507
vt 0.618647 0.802507
vt 0.380549 0.947493
vt 0.381353 0.947493
vt 0.601347 0.951096
vt 0.601347 0.943890
vt 0.601230 0.945691
vt 0.600035 0.947332
vt 0.501312 0.947332
vt 0.500117 0.945691
vt 0.500000 0.943890
vt 0.500000 0.806110
vt 0.500117 0.804309
vt 0.501312 0.802668
vt 0.502623 0.802507
vt 0.598723 0.802507
vt 0.600035 0.802668
vt 0.601230 0.804309
vt 0.601347 0.806110
vt 0.500000 0.951096
vt 0.601347 0.798904
vt 0.598724 0.802507
vt 0.502623 0.802507
vt 0.500000 0.945691
vt 0.500000 0.947010
vt 0.500000 0.947493
vt 0.501312 0.802507
vt 0.500351 0.802507
vt 0.500000 0.802507
vt 0.601347 0.804309
vt 0.601347 0.802990
vt 0.601347 0.802507
vt 0.600035 0.947493
vt 0.600995 0.947493
vt 0.601347 0.947493
vt 0.501312 0.947493
vt 0.600035 0.802507
vt 0.601347 0.945691
vt 0.500000 0.804309
vt 0.629313 0.526876
vt 0.629313 0.723124
vt 0.870687 0.723124
vt 0.870687 0.526876
vt 0.629313 0.526876
vt 0.870687 0.526876
vt 0.870687 0.706689
vt 0.629313 0.706689
vt 0.870687 0.526876
vt 0.629313 0.526876
vt 0.629313 0.526876
vt 0.870687 0.526876
vt 0.870687 0.526876
vt 0.629313 0.526876
vt 0.870687 0.526876
vt 0.629313 0.526876
vt 0.870687 0.526876
vt 0.629313 0.526876
vt 0.629313 0.526876
vt 0.870687 0.526876
vn 1.0000 0.0000 0.0000
vn 0.0000 1.0000 0.0000
vn -1.0000 0.0000 0.0000
vn 0.0000 0.0000 -1.0000
vn -0.3251 -0.8881 0.3251
vn -0.3251 -0.3251 0.8881
vn -0.8881 -0.3251 0.3251
vn -0.3251 0.3251 0.8881
vn -0.3251 0.8881 0.3251
vn -0.8881 0.3251 0.3251
vn -0.3251 -0.8881 -0.3251
vn -0.8881 -0.3251 -0.3251
vn -0.3251 -0.3251 -0.8881
vn -0.3251 0.8881 -0.3251
vn -0.3251 0.3251 -0.8881
vn -0.8881 0.3251 -0.3251
vn 0.3251 -0.8881 0.3251
vn 0.8881 -0.3251 0.3251
vn 0.3251 -0.3251 0.8881
vn 0.3251 0.8881 0.3251
vn 0.3251 0.3251 0.8881
vn 0.8881 0.3251 0.3251
vn 0.3251 -0.8881 -0.3251
vn 0.3251 -0.3251 -0.8881
vn 0.8881 -0.3251 -0.3251
vn 0.3251 0.8881 -0.3251
vn 0.8881 0.3251 -0.3251
vn 0.3251 0.3251 -0.8881
vn -0.3827 -0.9239 0.0000
vn -0.9239 -0.3827 0.0000
vn -0.3827 0.0000 0.9239
vn -0.9239 0.0000 0.3827
vn -0.3827 0.9239 0.0000
vn -0.9239 0.3827 0.0000
vn -0.3827 0.0000 -0.9239
vn -0.9239 0.0000 -0.3827
vn 0.0000 -0.9239 -0.3827
vn 0.0000 -0.3827 -0.9239
vn 0.0000 0.9239 -0.3827
vn 0.0000 0.3827 -0.9239
vn 0.9239 0.0000 -0.3827
vn 0.3827 0.0000 -0.9239
vn 0.3827 -0.9239 0.0000
vn 0.9239 -0.3827 0.0000
vn 0.3827 0.9239 0.0000
vn 0.9239 0.3827 0.0000
vn 0.3827 0.0000 0.9239
vn 0.9239 0.0000 0.3827
vn 0.0000 -0.9239 0.3827
vn 0.0000 -0.3827 0.9239
vn 0.0000 0.9239 0.3827
vn 0.0000 0.3827 0.9239
vn 0.0000 -1.0000 0.0000
vn 0.0000 0.2585 0.9660
vn 0.0000 0.0000 1.0000
vn -0.9318 -0.2566 0.2566
vn -0.6901 -0.6901 0.2178
vn -0.2566 -0.9318 0.2566
vn -0.2178 -0.6901 0.6901
vn -0.2566 -0.2566 0.9318
vn -0.6901 -0.2178 0.6901
vn -0.5773 -0.5774 0.5774
vn -0.9318 0.2566 0.2566
vn -0.6901 0.2178 0.6901
vn -0.2566 0.2566 0.9318
vn -0.2178 0.6901 0.6901
vn -0.2566 0.9318 0.2566
vn -0.6901 0.6901 0.2178
vn -0.5773 0.5774 0.5774
vn 0.9318 -0.2566 0.2566
vn 0.6901 -0.2178 0.6901
vn 0.2566 -0.2566 0.9318
vn 0.2178 -0.6901 0.6901
vn 0.2566 -0.9318 0.2566
vn 0.6901 -0.6901 0.2178
vn 0.5773 -0.5774 0.5774
vn 0.9318 0.2566 0.2566
vn 0.6901 0.6901 0.2178
vn 0.2566 0.9318 0.2566
vn 0.2178 0.6901 0.6901
vn 0.2566 0.2566 0.9318
vn 0.6901 0.2178 0.6901
vn 0.5773 0.5774 0.5774
vn -0.2585 0.0000 0.9660
vn -0.7071 0.0000 0.7071
vn -0.9660 0.0000 0.2584
vn 0.2585 -0.0000 0.9660
vn 0.7071 0.0000 0.7071
vn 0.9660 0.0000 0.2584
vn 0.0000 -0.9660 0.2585
vn 0.0000 0.9660 0.2585
vn -0.9660 0.2586 -0.0000
vn -0.7071 0.7071 0.0001
vn -0.2586 0.9660 -0.0000
vn 0.9660 0.2586 -0.0000
vn 0.7071 0.7071 0.0001
vn 0.2586 0.9660 -0.0000
vn 0.2586 -0.9660 -0.0000
vn 0.7071 -0.7071 0.0001
vn 0.9660 -0.2586 -0.0000
vn -0.9660 -0.2586 -0.0000
vn -0.7071 -0.7071 0.0001
vn -0.2586 -0.9660 -0.0000
vn 0.2584 0.0000 0.9660
vn 0.0000 -0.2585 0.9660
vn -0.2584 0.0000 0.9660
vn 0.0000 -0.7071 0.7071
vn 0.0000 0.7071 0.7071
vn 0.0000 0.9660 0.2584
vn 0.0000 -0.9660 0.2584
vn 0.2588 0.9659 0.0000
vn 0.7071 0.7071 0.0000
vn 0.9659 0.2588 0.0000
vn -0.2588 -0.9659 0.0000
vn -0.7071 -0.7071 0.0000
vn -0.9659 -0.2588 0.0000
vn 0.2588 -0.9659 0.0000
vn 0.7071 -0.7071 0.0000
vn 0.9659 -0.2588 0.0000
vn -0.2588 0.9659 0.0000
vn -0.7071 0.7071 0.0000
vn -0.9659 0.2588 0.0000
vn 0.0000 -0.9094 0.4160
vn 0.0000 0.5662 0.8243
vn 0.0000 0.0009 1.0000
vn 0.0000 0.9387 -0.3446
vn 0.0000 -0.0005 -1.0000
vn 0.0000 0.3359 -0.9419
vn 0.0000 -0.1930 0.9812
usemtl None
s off
f 139/1/1 73/2/1 113/3/1 138/4/1
f 41/5/1 47/6/1 34/7/1 28/8/1
f 46/9/2 20/10/2 7/11/2 33/12/2
f 2/13/3 8/14/3 22/15/3 14/16/3
f 15/17/4 21/18/4 48/19/4 40/20/4
f 1/21/5 3/22/5 4/23/5 6/24/5
f 53/25/6 5/26/6 4/27/6 3/28/6
f 2/13/7 6/29/7 4/30/7 5/31/7
f 54/32/8 9/33/8 10/34/8 12/35/8
f 7/11/9 11/36/9 10/37/9 9/38/9
f 8/14/10 12/39/10 10/40/10 11/41/10
f 13/42/11 16/43/11 17/44/11 19/45/11
f 14/16/12 18/46/12 17/47/12 16/48/12
f 15/17/13 19/49/13 17/50/13 18/46/13
f 20/10/14 23/51/14 24/52/14 26/53/14
f 21/18/15 25/54/15 24/55/15 23/56/15
f 22/15/16 26/57/16 24/58/16 25/54/16
f 27/59/17 29/60/17 30/61/17 32/62/17
f 28/8/18 31/63/18 30/61/18 29/60/18
f 56/64/19 32/65/19 30/61/19 31/63/19
f 33/12/20 35/66/20 36/67/20 38/68/20
f 55/69/21 37/70/21 36/67/21 35/71/21
f 34/7/22 38/68/22 36/67/22 37/70/22
f 39/72/23 42/73/23 43/74/23 45/75/23
f 40/20/24 44/76/24 43/74/24 42/77/24
f 41/5/25 45/75/25 43/74/25 44/76/25
f 46/9/26 49/78/26 50/79/26 52/80/26
f 47/6/27 51/81/27 50/79/27 49/78/27
f 48/19/28 52/82/28 50/79/28 51/81/28
f 13/42/29 1/21/29 6/24/29 16/43/29
f 16/48/30 6/29/30 2/13/30 14/16/30
f 53/25/31 54/32/31 12/35/31 5/26/31
f 5/31/32 12/39/32 8/14/32 2/13/32
f 7/11/33 20/10/33 26/53/33 11/36/33
f 11/41/34 26/57/34 22/15/34 8/14/34
f 21/18/35 15/17/35 18/46/35 25/54/35
f 25/54/36 18/46/36 14/16/36 22/15/36
f 39/72/37 13/42/37 19/45/37 42/73/37
f 42/77/38 19/49/38 15/17/38 40/20/38
f 20/10/39 46/9/39 52/80/39 23/51/39
f 23/56/40 52/82/40 48/19/40 21/18/40
f 47/6/41 41/5/41 44/76/41 51/81/41
f 51/81/42 44/76/42 40/20/42 48/19/42
f 27/59/43 39/72/43 45/75/43 29/60/43
f 29/60/44 45/75/44 41/5/44 28/8/44
f 46/9/45 33/12/45 38/68/45 49/78/45
f 49/78/46 38/68/46 34/7/46 47/6/46
f 55/69/47 56/64/47 31/63/47 37/70/47
f 37/70/48 31/63/48 28/8/48 34/7/48
f 1/21/49 27/59/49 32/62/49 3/22/49
f 3/28/50 32/65/50 56/64/50 53/25/50
f 33/12/51 7/11/51 9/38/51 35/66/51
f 35/71/52 9/33/52 54/32/52 55/69/52
f 13/42/53 39/72/53 27/59/53 1/21/53
f 57/83/53 162/84/53 151/85/53 78/86/53
f 90/87/54 153/88/54 155/89/54 95/90/54
f 181/91/55 184/92/55 145/93/55 146/94/55 189/95/55 188/96/55
f 72/97/2 164/98/2 159/99/2 114/100/2
f 74/101/55 73/2/55 139/1/55 134/102/55 67/103/55 69/104/55 56/64/55 55/69/55
f 64/105/55 63/106/55 163/107/55 164/98/55 72/97/55 74/101/55 55/69/55 54/32/55
f 59/108/55 58/109/55 133/110/55 144/111/55 62/112/55 64/105/55 54/32/55 53/25/55
f 57/83/55 60/113/55 59/108/55
f 60/113/55 61/114/55 59/108/55
f 61/114/55 58/115/55 59/108/55
f 62/112/55 65/116/55 64/105/55
f 65/116/55 66/117/55 64/105/55
f 66/117/55 63/118/55 64/105/55
f 67/103/55 70/119/55 69/104/55
f 70/119/55 71/120/55 69/104/55
f 71/120/55 68/121/55 69/104/55
f 72/97/55 75/122/55 74/101/55
f 75/122/55 76/123/55 74/101/55
f 76/123/55 73/124/55 74/101/55
f 77/125/56 80/126/56 82/127/56 81/128/56
f 80/126/57 84/129/57 85/130/57 82/127/57
f 78/86/58 83/131/58 85/132/58 84/133/58
f 83/131/59 87/134/59 88/135/59 85/132/59
f 79/136/60 86/137/60 88/138/60 87/139/60
f 86/137/61 81/128/61 82/127/61 88/138/61
f 82/127/62 85/132/62 88/138/62
f 89/140/63 92/141/63 94/142/63 93/143/63
f 92/141/64 96/144/64 97/145/64 94/142/64
f 90/87/65 95/90/65 97/146/65 96/147/65
f 95/90/66 99/148/66 100/149/66 97/146/66
f 91/150/67 98/151/67 100/149/67 99/148/67
f 98/151/68 93/152/68 94/153/68 100/149/68
f 94/142/69 97/146/69 100/149/69
f 101/154/70 104/155/70 106/156/70 105/157/70
f 104/155/71 108/158/71 109/159/71 106/156/71
f 102/160/72 107/161/72 109/162/72 108/163/72
f 107/161/73 111/164/73 112/165/73 109/162/73
f 103/166/74 110/167/74 112/165/74 111/164/74
f 110/167/75 105/168/75 106/169/75 112/165/75
f 106/156/76 109/162/76 112/165/76
f 113/3/77 116/170/77 118/171/77 117/172/77
f 116/170/78 120/173/78 121/174/78 118/171/78
f 114/100/79 119/175/79 121/176/79 120/177/79
f 119/175/80 123/178/80 124/179/80 121/176/80
f 115/180/81 122/181/81 124/182/81 123/183/81
f 122/181/82 117/172/82 118/171/82 124/182/82
f 118/171/83 121/176/83 124/182/83
f 135/184/84 90/87/84 96/147/84 140/185/84
f 140/185/85 96/147/85 92/141/85 141/186/85
f 141/186/86 92/141/86 89/140/86 142/187/86
f 129/188/87 102/160/87 108/163/87 130/189/87
f 130/189/88 108/163/88 104/155/88 131/190/88
f 131/190/89 104/155/89 101/154/89 132/191/89
f 153/88/55 201/192/55 200/193/55 193/194/55 196/195/55 154/196/55
f 111/164/90 149/197/90 152/198/90 103/166/90
f 161/199/53 68/200/53 103/166/53 152/198/53
f 99/148/91 157/201/91 160/202/91 91/150/91
f 163/107/2 63/106/2 91/150/2 160/202/2
f 62/112/92 89/140/92 93/143/92 65/116/92
f 65/116/93 93/143/93 98/151/93 66/203/93
f 66/203/94 98/151/94 91/150/94 63/106/94
f 113/3/95 73/2/95 76/204/95 116/170/95
f 116/170/96 76/204/96 75/122/96 120/177/96
f 120/177/97 75/122/97 72/97/97 114/100/97
f 103/166/98 68/200/98 71/205/98 110/167/98
f 110/167/99 71/205/99 70/119/99 105/157/99
f 105/157/100 70/119/100 67/103/100 101/154/100
f 77/125/101 58/109/101 61/206/101 80/126/101
f 80/126/102 61/206/102 60/113/102 84/133/102
f 84/133/103 60/113/103 57/83/103 78/86/103
f 133/110/3 58/109/3 77/125/3 128/207/3
f 144/111/3 133/110/3 128/207/3 142/187/3
f 137/208/89 131/190/89 132/191/89 138/4/89
f 136/209/88 130/189/88 131/190/88 137/208/88
f 143/210/104 129/188/104 130/189/104 136/209/104
f 81/128/86 127/211/86 128/207/86 77/125/86
f 86/137/85 126/212/85 127/211/85 81/128/85
f 79/136/84 125/213/84 126/212/84 86/137/84
f 102/160/105 146/94/105 147/214/105 107/161/105
f 67/103/1 134/102/1 132/191/1 101/154/1
f 115/180/87 143/210/87 136/209/87 122/181/87
f 122/181/88 136/209/88 137/208/88 117/172/88
f 117/172/89 137/208/89 138/4/89 113/3/89
f 62/112/3 144/111/3 142/187/3 89/140/3
f 127/211/86 141/186/86 142/187/86 128/207/86
f 126/212/85 140/185/85 141/186/85 127/211/85
f 125/213/106 135/184/106 140/185/106 126/212/106
f 102/160/55 129/188/55 190/215/55 189/95/55 146/94/55
f 134/102/1 139/1/1 138/4/1 132/191/1
f 199/216/1 182/217/1 169/218/1 174/219/1
f 107/161/107 147/214/107 149/197/107 111/164/107
f 158/220/91 119/175/91 114/100/91 159/99/91
f 156/221/108 123/183/108 119/175/108 158/220/108
f 95/90/108 155/89/108 157/201/108 99/148/108
f 150/222/90 83/131/90 78/86/90 151/85/90
f 148/223/107 87/139/107 83/131/107 150/222/107
f 145/93/105 79/136/105 87/139/105 148/223/105
f 69/104/55 68/200/55 161/199/55 162/84/55 57/83/55 59/108/55 53/25/55 56/64/55
f 154/196/54 115/180/54 123/183/54 156/221/54
f 202/224/55 201/192/55 153/88/55 90/87/55 135/184/55
f 173/225/55 175/226/55 176/227/55 174/219/55 169/218/55 171/228/55 172/229/55 170/230/55 165/231/55 167/232/55 168/233/55 166/234/55 177/235/55 179/236/55 180/237/55 178/238/55
f 145/93/55 184/92/55 183/239/55 125/213/55 79/136/55
f 158/220/109 159/99/109 160/202/109 157/201/109
f 156/221/108 158/220/108 157/201/108 155/89/108
f 154/196/54 156/221/54 155/89/54 153/88/54
f 150/222/110 151/85/110 152/198/110 149/197/110
f 148/223/107 150/222/107 149/197/107 147/214/107
f 145/93/105 148/223/105 147/214/105 146/94/105
f 163/107/2 160/202/2 159/99/2 164/98/2
f 143/210/55 115/180/55 154/196/55 196/195/55 195/240/55
f 161/199/53 152/198/53 151/85/53 162/84/53
f 129/188/55 143/210/55 195/240/55 194/241/55 187/242/55 190/215/55
f 193/194/53 200/193/53 173/225/53 178/238/53
f 187/242/3 194/241/3 177/235/3 166/234/3
f 183/239/55 182/217/55 199/216/55 202/224/55 135/184/55 125/213/55
f 181/91/55 185/243/55 186/244/55 182/245/55 183/239/55 184/92/55
f 187/242/55 191/246/55 192/247/55 188/248/55 189/95/55 190/215/55
f 193/194/55 197/249/55 198/250/55 194/251/55 195/240/55 196/195/55
f 199/216/55 203/252/55 204/253/55 200/254/55 201/192/55 202/224/55
f 181/91/111 170/230/111 172/229/111 185/243/111
f 185/243/112 172/229/112 171/228/112 186/255/112
f 186/255/113 171/228/113 169/218/113 182/217/113
f 193/194/114 178/238/114 180/237/114 197/249/114
f 197/249/115 180/237/115 179/236/115 198/256/115
f 198/256/116 179/236/116 177/235/116 194/241/116
f 173/225/117 200/193/117 204/257/117 175/226/117
f 175/226/118 204/257/118 203/252/118 176/227/118
f 176/227/119 203/252/119 199/216/119 174/219/119
f 165/231/120 188/96/120 192/258/120 167/232/120
f 167/232/121 192/258/121 191/246/121 168/233/121
f 168/233/122 191/246/122 187/242/122 166/234/122
f 181/91/2 188/96/2 165/231/2 170/230/2
f 208/259/53 207/260/53 205/261/53 206/262/53
f 211/263/2 210/264/2 209/265/2 212/266/2
f 208/259/123 206/262/123 213/267/123 214/268/123
f 207/260/1 208/259/1 211/263/1 212/266/1
f 206/262/3 205/261/3 209/265/3 210/264/3
f 205/261/124 207/260/124 212/266/124 209/265/124
f 222/269/125 221/270/125 217/271/125 218/272/125
f 206/262/3 210/264/3 215/273/3 213/267/3
f 211/263/1 208/259/1 214/268/1 216/274/1
f 210/264/126 211/263/126 216/274/126 215/273/126
f 218/272/53 217/271/53 219/275/53 220/276/53
f 223/277/1 222/269/1 218/272/1 220/276/1
f 224/278/127 223/277/127 220/276/127 219/275/127
f 221/270/3 224/278/3 219/275/3 217/271/3
f 213/267/3 215/273/3 224/278/3 221/270/3
f 215/273/128 216/274/128 223/277/128 224/278/128
f 216/274/1 214/268/1 222/269/1 223/277/1
f 214/268/129 213/267/129 221/270/129 222/269/129
